<svg xmlns="http://www.w3.org/2000/svg" xmlns:xlink="http://www.w3.org/1999/xlink" width="1080" zoomAndPan="magnify" viewBox="0 0 810 809.999993" height="1080" preserveAspectRatio="xMidYMid meet" version="1.0"><defs><clipPath id="7c8020236d"><path d="M 112 79.242188 L 712 79.242188 L 712 614 L 112 614 Z M 112 79.242188 " clip-rule="nonzero"/></clipPath><clipPath id="8e5097c778"><path d="M 78.628906 140 L 498 140 L 498 562 L 78.628906 562 Z M 78.628906 140 " clip-rule="nonzero"/></clipPath><clipPath id="8959505bf0"><path d="M 78.628906 79.242188 L 496 79.242188 L 496 410 L 78.628906 410 Z M 78.628906 79.242188 " clip-rule="nonzero"/></clipPath><clipPath id="68b6a76ae7"><path d="M 126 79.242188 L 548 79.242188 L 548 358 L 126 358 Z M 126 79.242188 " clip-rule="nonzero"/></clipPath><clipPath id="78398e930e"><path d="M 78.628906 79.242188 L 481 79.242188 L 481 477 L 78.628906 477 Z M 78.628906 79.242188 " clip-rule="nonzero"/></clipPath><clipPath id="d1b65f3cc4"><path d="M 325 140 L 731.128906 140 L 731.128906 562 L 325 562 Z M 325 140 " clip-rule="nonzero"/></clipPath><clipPath id="fac6500e1f"><path d="M 328 79.242188 L 731.128906 79.242188 L 731.128906 410 L 328 410 Z M 328 79.242188 " clip-rule="nonzero"/></clipPath><clipPath id="256e2a6903"><path d="M 276 79.242188 L 698 79.242188 L 698 358 L 276 358 Z M 276 79.242188 " clip-rule="nonzero"/></clipPath><clipPath id="f38935cd18"><path d="M 342 79.242188 L 731.128906 79.242188 L 731.128906 477 L 342 477 Z M 342 79.242188 " clip-rule="nonzero"/></clipPath><clipPath id="a275420297"><path d="M 210 79.242188 L 614 79.242188 L 614 342 L 210 342 Z M 210 79.242188 " clip-rule="nonzero"/></clipPath><clipPath id="bfa9c67a0c"><path d="M 78.628906 264 L 731.128906 264 L 731.128906 728.742188 L 78.628906 728.742188 Z M 78.628906 264 " clip-rule="nonzero"/></clipPath><clipPath id="0e9dad4001"><path d="M 371 279 L 731.128906 279 L 731.128906 728.742188 L 371 728.742188 Z M 371 279 " clip-rule="nonzero"/></clipPath><clipPath id="dac94f8e6f"><path d="M 78.628906 279 L 451 279 L 451 728.742188 L 78.628906 728.742188 Z M 78.628906 279 " clip-rule="nonzero"/></clipPath><clipPath id="792012a0be"><path d="M 92 325 L 573 325 L 573 728.742188 L 92 728.742188 Z M 92 325 " clip-rule="nonzero"/></clipPath><clipPath id="82eda1b0a7"><path d="M 252 325 L 731.128906 325 L 731.128906 728.742188 L 252 728.742188 Z M 252 325 " clip-rule="nonzero"/></clipPath><clipPath id="9ef40c3009"><path d="M 451 227 L 731.128906 227 L 731.128906 720 L 451 720 Z M 451 227 " clip-rule="nonzero"/></clipPath><clipPath id="a3caa8f0c4"><path d="M 404 124 L 731.128906 124 L 731.128906 596 L 404 596 Z M 404 124 " clip-rule="nonzero"/></clipPath><clipPath id="ad419410ae"><path d="M 78.628906 227 L 371 227 L 371 720 L 78.628906 720 Z M 78.628906 227 " clip-rule="nonzero"/></clipPath><clipPath id="2af2eccf6f"><path d="M 78.628906 124 L 418 124 L 418 596 L 78.628906 596 Z M 78.628906 124 " clip-rule="nonzero"/></clipPath></defs><g clip-path="url(#7c8020236d)"><path stroke-linecap="butt" transform="matrix(0.950369, 0, 0, 0.950369, -102.302444, 78.893102)" fill="none" stroke-linejoin="miter" d="M 643.690991 202.611988 C 643.690991 145.91936 597.738437 99.970916 541.049919 99.970916 C 484.361401 99.970916 438.408847 145.91936 438.408847 202.611988 C 438.408847 229.760166 448.959849 254.438085 466.169451 272.798555 L 466.169451 325.968702 C 466.169451 339.688704 477.299998 350.819252 491.02 350.819252 L 593.488442 350.819252 C 607.208444 350.819252 618.338992 339.688704 618.338992 325.968702 L 618.338992 272.177908 C 618.338992 271.520269 618.31022 270.87085 618.260897 270.229651 C 634.089456 252.169229 643.690991 228.510651 643.690991 202.611988 Z M 643.690991 202.611988 " stroke="#ffffff" stroke-width="15" stroke-opacity="1" stroke-miterlimit="10"/></g><path stroke-linecap="butt" transform="matrix(0.950369, 0, 0, 0.950369, -102.302444, 78.893102)" fill="none" stroke-linejoin="miter" d="M 573.479763 204.441048 C 573.479763 205.501492 573.42633 206.561935 573.323573 207.618268 C 573.220817 208.674602 573.064628 209.726825 572.855005 210.766717 C 572.649493 211.806609 572.390548 212.838281 572.082279 213.853512 C 571.774011 214.868743 571.416419 215.867533 571.009505 216.849882 C 570.606701 217.832231 570.150463 218.789918 569.649013 219.727054 C 569.151673 220.66419 568.605011 221.572555 568.013135 222.456258 C 567.42537 223.339961 566.792392 224.190782 566.118312 225.012831 C 565.444231 225.83488 564.733159 226.619937 563.980983 227.372112 C 563.228808 228.124287 562.443751 228.83536 561.621702 229.509441 C 560.803763 230.183521 559.948832 230.816499 559.065129 231.404264 C 558.185536 231.99614 557.273061 232.538692 556.335925 233.040142 C 555.398789 233.541592 554.441102 233.993719 553.458753 234.400634 C 552.480514 234.807548 551.481724 235.16514 550.462383 235.473408 C 549.447152 235.781676 548.419591 236.040622 547.375588 236.246134 C 546.335696 236.455757 545.287583 236.607836 544.227139 236.714702 C 543.170806 236.817459 542.110363 236.870892 541.049919 236.870892 C 539.989475 236.870892 538.929032 236.817459 537.872699 236.714702 C 536.812255 236.607836 535.764142 236.455757 534.72425 236.246134 C 533.680247 236.040622 532.652686 235.781676 531.637455 235.473408 C 530.618114 235.16514 529.619324 234.807548 528.641085 234.400634 C 527.658736 233.993719 526.701049 233.541592 525.763913 233.040142 C 524.826777 232.538692 523.914302 231.99614 523.034709 231.404264 C 522.151006 230.816499 521.296075 230.183521 520.478136 229.509441 C 519.656087 228.83536 518.87103 228.124287 518.118855 227.372112 C 517.36668 226.619937 516.655607 225.83488 515.981527 225.012831 C 515.307446 224.190782 514.674468 223.339961 514.086703 222.456258 C 513.494827 221.572555 512.948165 220.66419 512.450825 219.727054 C 511.949375 218.789918 511.493137 217.832231 511.090333 216.849882 C 510.683419 215.867533 510.325828 214.868743 510.017559 213.853512 C 509.709291 212.838281 509.450345 211.806609 509.244833 210.766717 C 509.03521 209.726825 508.879021 208.674602 508.776265 207.618268 C 508.673508 206.561935 508.620075 205.501492 508.620075 204.441048 C 508.620075 203.376494 508.673508 202.320161 508.776265 201.259717 C 508.879021 200.203384 509.03521 199.155271 509.244833 198.111269 C 509.450345 197.071376 509.709291 196.043815 510.017559 195.024474 C 510.325828 194.009243 510.683419 193.010453 511.090333 192.028104 C 511.493137 191.049865 511.949375 190.088068 512.450825 189.150932 C 512.948165 188.217906 513.494827 187.305431 514.086703 186.421728 C 514.674468 185.538025 515.307446 184.687204 515.981527 183.865155 C 516.655607 183.047216 517.36668 182.258048 518.118855 181.509984 C 518.87103 180.757808 519.656087 180.046736 520.478136 179.372655 C 521.296075 178.698575 522.151006 178.065597 523.034709 177.473722 C 523.914302 176.885956 524.826777 176.339294 525.763913 175.837844 C 526.701049 175.340504 527.658736 174.884266 528.641085 174.477352 C 529.619324 174.070438 530.618114 173.712846 531.637455 173.404578 C 532.652686 173.096309 533.680247 172.841474 534.72425 172.631851 C 535.764142 172.426339 536.812255 172.27015 537.872699 172.167394 C 538.929032 172.060527 539.989475 172.011204 541.049919 172.011204 C 542.110363 172.011204 543.170806 172.060527 544.227139 172.167394 C 545.287583 172.27015 546.335696 172.426339 547.375588 172.631851 C 548.419591 172.841474 549.447152 173.096309 550.462383 173.404578 C 551.481724 173.712846 552.480514 174.070438 553.458753 174.477352 C 554.441102 174.884266 555.398789 175.340504 556.335925 175.837844 C 557.273061 176.339294 558.185536 176.885956 559.065129 177.473722 C 559.948832 178.065597 560.803763 178.698575 561.621702 179.372655 C 562.443751 180.046736 563.228808 180.757808 563.980983 181.509984 C 564.733159 182.258048 565.444231 183.047216 566.118312 183.865155 C 566.792392 184.687204 567.42537 185.538025 568.013135 186.421728 C 568.605011 187.305431 569.151673 188.217906 569.649013 189.150932 C 570.150463 190.088068 570.606701 191.049865 571.009505 192.028104 C 571.416419 193.010453 571.774011 194.009243 572.082279 195.024474 C 572.390548 196.043815 572.649493 197.071376 572.855005 198.111269 C 573.064628 199.155271 573.220817 200.203384 573.323573 201.259717 C 573.42633 202.320161 573.479763 203.376494 573.479763 204.441048 Z M 573.479763 204.441048 " stroke="#ffffff" stroke-width="12" stroke-opacity="1" stroke-miterlimit="10"/><path stroke-linecap="butt" transform="matrix(0.950369, 0, 0, 0.950369, -102.302444, 78.893102)" fill="none" stroke-linejoin="miter" d="M 541.049919 297.628553 L 541.049919 236.870892 " stroke="#ffffff" stroke-width="12" stroke-opacity="1" stroke-miterlimit="10"/><path stroke-linecap="round" transform="matrix(0.950369, 0, 0, 0.950369, -102.302444, 78.893102)" fill="none" stroke-linejoin="miter" d="M 448.618699 301.208578 L 633.468808 301.208578 " stroke="#ffffff" stroke-width="12" stroke-opacity="1" stroke-miterlimit="10"/><path stroke-linecap="round" transform="matrix(0.950369, 0, 0, 0.950369, -102.302444, 78.893102)" fill="none" stroke-linejoin="miter" d="M 448.618699 325.717977 L 633.468808 325.717977 " stroke="#ffffff" stroke-width="12" stroke-opacity="1" stroke-miterlimit="10"/><g clip-path="url(#8e5097c778)"><path stroke-linecap="round" transform="matrix(0.950369, 0, 0, 0.950369, -102.302444, 78.893102)" fill="none" stroke-linejoin="miter" d="M 419.448281 276.830707 L 393.91132 295.630974 " stroke="#ffffff" stroke-width="15" stroke-opacity="1" stroke-miterlimit="10"/></g><g clip-path="url(#8959505bf0)"><path stroke-linecap="round" transform="matrix(0.950369, 0, 0, 0.950369, -102.302444, 78.893102)" fill="none" stroke-linejoin="miter" d="M 391.40818 116.761273 L 416.94103 135.561539 " stroke="#ffffff" stroke-width="15" stroke-opacity="1" stroke-miterlimit="10"/></g><g clip-path="url(#68b6a76ae7)"><path stroke-linecap="round" transform="matrix(0.950369, 0, 0, 0.950369, -102.302444, 78.893102)" fill="none" stroke-linejoin="miter" d="M 452.379574 55.839201 L 471.270267 81.298067 " stroke="#ffffff" stroke-width="15" stroke-opacity="1" stroke-miterlimit="10"/></g><g clip-path="url(#78398e930e)"><path stroke-linecap="round" transform="matrix(0.950369, 0, 0, 0.950369, -102.302444, 78.893102)" fill="none" stroke-linejoin="miter" d="M 369.590992 205.670012 L 401.280992 206.718124 " stroke="#ffffff" stroke-width="15" stroke-opacity="1" stroke-miterlimit="10"/></g><g clip-path="url(#d1b65f3cc4)"><path stroke-linecap="round" transform="matrix(0.950369, 0, 0, 0.950369, -102.302444, 78.893102)" fill="none" stroke-linejoin="miter" d="M 662.450156 276.830707 L 687.978896 295.630974 " stroke="#ffffff" stroke-width="15" stroke-opacity="1" stroke-miterlimit="10"/></g><g clip-path="url(#fac6500e1f)"><path stroke-linecap="round" transform="matrix(0.950369, 0, 0, 0.950369, -102.302444, 78.893102)" fill="none" stroke-linejoin="miter" d="M 690.477925 116.761273 L 664.949185 135.561539 " stroke="#ffffff" stroke-width="15" stroke-opacity="1" stroke-miterlimit="10"/></g><g clip-path="url(#256e2a6903)"><path stroke-linecap="round" transform="matrix(0.950369, 0, 0, 0.950369, -102.302444, 78.893102)" fill="none" stroke-linejoin="miter" d="M 629.518862 55.839201 L 610.619949 81.298067 " stroke="#ffffff" stroke-width="15" stroke-opacity="1" stroke-miterlimit="10"/></g><g clip-path="url(#f38935cd18)"><path stroke-linecap="round" transform="matrix(0.950369, 0, 0, 0.950369, -102.302444, 78.893102)" fill="none" stroke-linejoin="miter" d="M 712.299223 205.670012 L 680.609224 206.718124 " stroke="#ffffff" stroke-width="15" stroke-opacity="1" stroke-miterlimit="10"/></g><g clip-path="url(#a275420297)"><path stroke-linecap="round" transform="matrix(0.950369, 0, 0, 0.950369, -102.302444, 78.893102)" fill="none" stroke-linejoin="miter" d="M 540.860848 32.978011 L 541.029368 64.680341 " stroke="#ffffff" stroke-width="15" stroke-opacity="1" stroke-miterlimit="10"/></g><g clip-path="url(#bfa9c67a0c)"><path stroke-linecap="round" transform="matrix(0.950369, 0, 0, 0.950369, -102.302444, 78.893102)" fill="none" stroke-linejoin="miter" d="M 394.211368 407.380352 L 688.768063 407.380352 C 689.470915 407.380352 690.169657 407.413234 690.868399 407.483108 C 691.563031 407.552982 692.257662 407.655738 692.944073 407.791376 C 693.630484 407.927014 694.312785 408.099645 694.982755 408.301047 C 695.652726 408.506559 696.310365 408.740843 696.959784 409.008009 C 697.605093 409.275175 698.238071 409.575223 698.858718 409.908153 C 699.475255 410.236973 700.075351 410.598675 700.659006 410.985038 C 701.242661 411.375511 701.805764 411.794756 702.344207 412.238663 C 702.886759 412.68257 703.40465 413.151138 703.90199 413.648477 C 704.39933 414.141707 704.867898 414.663708 705.311805 415.202151 C 705.755711 415.744703 706.174956 416.307807 706.561319 416.891462 C 706.951793 417.475117 707.313495 418.075213 707.642314 418.69175 C 707.975244 419.308287 708.271182 419.941265 708.542458 420.590684 C 708.809624 421.240102 709.043908 421.897742 709.249421 422.567712 C 709.450823 423.237682 709.623453 423.915873 709.759091 424.606394 C 709.894729 425.292805 709.997485 425.983327 710.06736 426.682069 C 710.137234 427.380811 710.170116 428.079552 710.170116 428.778294 L 710.170116 628.018376 C 710.170116 628.721228 710.137234 629.41997 710.06736 630.118712 C 709.997485 630.813344 709.894729 631.507975 709.759091 632.194387 C 709.623453 632.880798 709.450823 633.563099 709.249421 634.233069 C 709.043908 634.903039 708.809624 635.560678 708.542458 636.210097 C 708.271182 636.855406 707.975244 637.488384 707.642314 638.109031 C 707.313495 638.725568 706.951793 639.325664 706.561319 639.909319 C 706.174956 640.492974 705.755711 641.056078 705.311805 641.59452 C 704.867898 642.137073 704.39933 642.654964 703.90199 643.152303 C 703.40465 643.645533 702.886759 644.118211 702.344207 644.562118 C 701.805764 645.006025 701.242661 645.42527 700.659006 645.811633 C 700.075351 646.202106 699.475255 646.563808 698.858718 646.892628 C 698.238071 647.221447 697.605093 647.521495 696.959784 647.792772 C 696.310365 648.059938 695.652726 648.294222 694.982755 648.499734 C 694.312785 648.701136 693.630484 648.873766 692.944073 649.009404 C 692.257662 649.145043 691.563031 649.247799 690.868399 649.317673 C 690.169657 649.387547 689.470915 649.420429 688.768063 649.420429 L 394.211368 649.420429 C 393.508516 649.420429 392.809774 649.387547 392.111032 649.317673 C 391.4164 649.247799 390.721769 649.145043 390.035358 649.009404 C 389.348946 648.873766 388.666646 648.701136 387.996675 648.499734 C 387.326705 648.294222 386.669066 648.059938 386.019647 647.792772 C 385.374338 647.521495 384.74136 647.221447 384.120713 646.892628 C 383.504176 646.563808 382.90408 646.202106 382.320425 645.811633 C 381.73677 645.42527 381.173666 645.006025 380.635224 644.562118 C 380.092672 644.118211 379.574781 643.645533 379.077441 643.152303 C 378.584211 642.654964 378.111533 642.137073 377.667626 641.59452 C 377.22372 641.056078 376.804475 640.492974 376.418111 639.909319 C 376.027638 639.325664 375.665936 638.725568 375.337117 638.109031 C 375.008297 637.488384 374.708249 636.855406 374.436973 636.210097 C 374.169807 635.560678 373.935523 634.903039 373.73001 634.233069 C 373.528608 633.563099 373.355978 632.880798 373.22034 632.194387 C 373.084702 631.507975 372.981945 630.813344 372.912071 630.118712 C 372.846307 629.41997 372.809315 628.721228 372.809315 628.018376 L 372.809315 428.778294 C 372.809315 428.079552 372.846307 427.380811 372.912071 426.682069 C 372.981945 425.983327 373.084702 425.292805 373.22034 424.606394 C 373.355978 423.915873 373.528608 423.237682 373.73001 422.567712 C 373.935523 421.897742 374.169807 421.240102 374.436973 420.590684 C 374.708249 419.941265 375.008297 419.308287 375.337117 418.69175 C 375.665936 418.075213 376.027638 417.475117 376.418111 416.891462 C 376.804475 416.307807 377.22372 415.744703 377.667626 415.202151 C 378.111533 414.663708 378.584211 414.141707 379.077441 413.648477 C 379.574781 413.151138 380.092672 412.68257 380.635224 412.238663 C 381.173666 411.794756 381.73677 411.375511 382.320425 410.985038 C 382.90408 410.598675 383.504176 410.236973 384.120713 409.908153 C 384.74136 409.575223 385.374338 409.275175 386.019647 409.008009 C 386.669066 408.740843 387.326705 408.506559 387.996675 408.301047 C 388.666646 408.099645 389.348946 407.927014 390.035358 407.791376 C 390.721769 407.655738 391.4164 407.552982 392.111032 407.483108 C 392.809774 407.413234 393.508516 407.380352 394.211368 407.380352 Z M 394.211368 407.380352 " stroke="#ffffff" stroke-width="15" stroke-opacity="1" stroke-miterlimit="10"/></g><g clip-path="url(#0e9dad4001)"><path stroke-linecap="round" transform="matrix(0.950369, 0, 0, 0.950369, -102.302444, 78.893102)" fill="none" stroke-linejoin="miter" d="M 710.170116 633.521996 C 761.12073 625.617992 800.131078 581.560262 800.131078 528.398335 C 800.131078 475.240519 761.12895 431.170458 710.170116 423.278785 L 710.170116 633.530217 Z M 710.170116 633.521996 " stroke="#ffffff" stroke-width="15" stroke-opacity="1" stroke-miterlimit="10"/></g><g clip-path="url(#dac94f8e6f)"><path stroke-linecap="round" transform="matrix(0.950369, 0, 0, 0.950369, -102.302444, 78.893102)" fill="none" stroke-linejoin="miter" d="M 369.71841 633.521996 C 318.771906 625.617992 279.761558 581.560262 279.761558 528.398335 C 279.761558 475.240519 318.759575 431.170458 369.71841 423.278785 L 369.71841 633.530217 Z M 369.71841 633.521996 " stroke="#ffffff" stroke-width="15" stroke-opacity="1" stroke-miterlimit="10"/></g><g clip-path="url(#792012a0be)"><path stroke-linecap="round" transform="matrix(0.950369, 0, 0, 0.950369, -102.302444, 78.893102)" fill="none" stroke-linejoin="miter" d="M 497.571733 512.228626 C 497.571733 513.552125 497.505969 514.867404 497.374441 516.182683 C 497.247024 517.497962 497.053842 518.80502 496.794897 520.099748 C 496.535951 521.394475 496.215352 522.676872 495.833099 523.938718 C 495.450846 525.204674 495.002829 526.445968 494.497269 527.666711 C 493.991708 528.887455 493.428605 530.079426 492.807958 531.246736 C 492.1832 532.409936 491.505009 533.544364 490.773386 534.6418 C 490.037651 535.739235 489.252594 536.799679 488.414104 537.82313 C 487.575614 538.842471 486.687801 539.82071 485.754775 540.753736 C 484.821749 541.690872 483.84351 542.574575 482.820059 543.413065 C 481.800718 544.251556 480.740274 545.036613 479.642838 545.772347 C 478.541292 546.503971 477.410975 547.182161 476.247775 547.806919 C 475.080465 548.427566 473.888494 548.99478 472.66775 549.50034 C 471.447007 550.0059 470.205713 550.449807 468.939757 550.83206 C 467.673801 551.218423 466.395514 551.539022 465.100787 551.793858 C 463.806059 552.052803 462.499001 552.245985 461.183722 552.377513 C 459.868443 552.50493 458.553164 552.570694 457.229665 552.570694 C 455.910276 552.570694 454.590887 552.50493 453.275608 552.377513 C 451.960329 552.245985 450.657381 552.052803 449.358543 551.793858 C 448.063816 551.539022 446.785529 551.218423 445.519573 550.83206 C 444.253617 550.449807 443.012323 550.0059 441.79158 549.50034 C 440.570837 548.99478 439.378865 548.427566 438.215665 547.806919 C 437.048355 547.182161 435.918038 546.503971 434.816492 545.772347 C 433.719056 545.036613 432.658612 544.251556 431.639271 543.413065 C 430.61582 542.574575 429.637581 541.690872 428.704555 540.753736 C 427.771529 539.82071 426.883716 538.842471 426.045226 537.82313 C 425.206736 536.799679 424.421679 535.739235 423.690055 534.6418 C 422.954321 533.544364 422.27613 532.409936 421.651373 531.246736 C 421.030725 530.079426 420.467622 528.887455 419.962061 527.666711 C 419.456501 526.445968 419.008484 525.204674 418.626231 523.938718 C 418.243978 522.676872 417.923379 521.394475 417.664434 520.099748 C 417.405488 518.80502 417.212306 517.497962 417.084889 516.182683 C 416.953361 514.867404 416.891707 513.552125 416.891707 512.228626 C 416.891707 510.909237 416.953361 509.589848 417.084889 508.274569 C 417.212306 506.95929 417.405488 505.656342 417.664434 504.361615 C 417.923379 503.062777 418.243978 501.78449 418.626231 500.518534 C 419.012594 499.256689 419.456501 498.011284 419.962061 496.790541 C 420.467622 495.573908 421.030725 494.377826 421.651373 493.214626 C 422.27613 492.047316 422.954321 490.916999 423.690055 489.819563 C 424.421679 488.718017 425.206736 487.661684 426.045226 486.638232 C 426.883716 485.618891 427.771529 484.640653 428.704555 483.703516 C 429.637581 482.77049 430.61582 481.886787 431.639271 481.048297 C 432.658612 480.209807 433.719056 479.42064 434.816492 478.689016 C 435.918038 477.953282 437.048355 477.275091 438.215665 476.654444 C 439.378865 476.029686 440.570837 475.466583 441.79158 474.961022 C 443.012323 474.455462 444.253617 474.011555 445.519573 473.625192 C 446.785529 473.242939 448.063816 472.92234 449.358543 472.663395 C 450.657381 472.408559 451.960329 472.215378 453.275608 472.08385 C 454.590887 471.956432 455.910276 471.890668 457.229665 471.890668 C 458.553164 471.890668 459.868443 471.956432 461.183722 472.08385 C 462.499001 472.215378 463.806059 472.408559 465.100787 472.663395 C 466.395514 472.92234 467.673801 473.242939 468.939757 473.625192 C 470.205713 474.011555 471.447007 474.455462 472.66775 474.961022 C 473.888494 475.466583 475.080465 476.029686 476.247775 476.654444 C 477.410975 477.275091 478.541292 477.953282 479.642838 478.689016 C 480.740274 479.42064 481.800718 480.209807 482.820059 481.048297 C 483.84351 481.886787 484.821749 482.77049 485.754775 483.703516 C 486.687801 484.640653 487.575614 485.618891 488.414104 486.638232 C 489.252594 487.661684 490.037651 488.718017 490.773386 489.819563 C 491.505009 490.916999 492.1832 492.047316 492.807958 493.214626 C 493.428605 494.377826 493.991708 495.573908 494.497269 496.790541 C 495.002829 498.011284 495.450846 499.256689 495.833099 500.518534 C 496.215352 501.78449 496.535951 503.062777 496.794897 504.361615 C 497.053842 505.656342 497.247024 506.95929 497.374441 508.274569 C 497.505969 509.589848 497.571733 510.909237 497.571733 512.228626 Z M 497.571733 512.228626 " stroke="#ffffff" stroke-width="15" stroke-opacity="1" stroke-miterlimit="10"/></g><g clip-path="url(#82eda1b0a7)"><path stroke-linecap="round" transform="matrix(0.950369, 0, 0, 0.950369, -102.302444, 78.893102)" fill="none" stroke-linejoin="miter" d="M 666.079503 512.228626 C 666.079503 513.552125 666.013739 514.867404 665.886321 516.182683 C 665.754794 517.497962 665.561612 518.80502 665.306777 520.099748 C 665.047831 521.394475 664.727232 522.676872 664.340869 523.938718 C 663.958616 525.204674 663.514709 526.445968 663.009149 527.666711 C 662.503589 528.887455 661.940485 530.079426 661.315728 531.246736 C 660.69508 532.409936 660.01689 533.544364 659.281156 534.6418 C 658.545421 535.739235 657.760364 536.799679 656.921874 537.82313 C 656.083384 538.842471 655.199681 539.82071 654.266655 540.753736 C 653.329519 541.690872 652.35128 542.574575 651.331939 543.413065 C 650.308488 544.251556 649.252154 545.036613 648.150608 545.772347 C 647.053173 546.503971 645.922855 547.182161 644.755545 547.806919 C 643.592345 548.427566 642.396264 548.99478 641.17552 549.50034 C 639.954777 550.0059 638.713483 550.449807 637.451637 550.83206 C 636.185681 551.218423 634.907395 551.539022 633.608557 551.793858 C 632.313829 552.052803 631.010881 552.245985 629.695602 552.377513 C 628.380323 552.50493 627.060934 552.570694 625.741545 552.570694 C 624.418046 552.570694 623.102767 552.50493 621.787488 552.377513 C 620.472209 552.245985 619.165151 552.052803 617.870424 551.793858 C 616.575696 551.539022 615.293299 551.218423 614.031453 550.83206 C 612.765498 550.449807 611.524203 550.0059 610.30346 549.50034 C 609.082717 548.99478 607.890745 548.427566 606.723435 547.806919 C 605.560236 547.182161 604.425808 546.503971 603.328372 545.772347 C 602.230936 545.036613 601.170493 544.251556 600.147041 543.413065 C 599.1277 542.574575 598.149461 541.690872 597.216436 540.753736 C 596.279299 539.82071 595.395596 538.842471 594.557106 537.82313 C 593.718616 536.799679 592.933559 535.739235 592.197825 534.6418 C 591.466201 533.544364 590.78801 532.409936 590.163253 531.246736 C 589.538495 530.079426 588.975392 528.887455 588.469831 527.666711 C 587.964271 526.445968 587.520364 525.204674 587.138111 523.938718 C 586.751748 522.676872 586.431149 521.394475 586.176314 520.099748 C 585.917368 518.80502 585.724187 517.497962 585.592659 516.182683 C 585.465241 514.867404 585.399477 513.552125 585.399477 512.228626 C 585.399477 510.909237 585.465241 509.589848 585.592659 508.274569 C 585.724187 506.95929 585.917368 505.656342 586.176314 504.361615 C 586.431149 503.062777 586.751748 501.78449 587.138111 500.518534 C 587.520364 499.256689 587.964271 498.011284 588.469831 496.790541 C 588.975392 495.573908 589.538495 494.377826 590.163253 493.214626 C 590.78801 492.047316 591.466201 490.916999 592.197825 489.819563 C 592.933559 488.718017 593.718616 487.661684 594.557106 486.638232 C 595.395596 485.618891 596.279299 484.640653 597.216436 483.703516 C 598.149461 482.77049 599.1277 481.886787 600.147041 481.048297 C 601.170493 480.209807 602.230936 479.42064 603.328372 478.689016 C 604.425808 477.953282 605.560236 477.275091 606.723435 476.654444 C 607.890745 476.029686 609.082717 475.466583 610.30346 474.961022 C 611.524203 474.455462 612.765498 474.011555 614.031453 473.625192 C 615.293299 473.242939 616.575696 472.92234 617.870424 472.663395 C 619.165151 472.408559 620.472209 472.215378 621.787488 472.08385 C 623.102767 471.956432 624.418046 471.890668 625.741545 471.890668 C 627.060934 471.890668 628.380323 471.956432 629.695602 472.08385 C 631.010881 472.215378 632.313829 472.408559 633.608557 472.663395 C 634.907395 472.92234 636.185681 473.242939 637.451637 473.625192 C 638.713483 474.011555 639.954777 474.455462 641.17552 474.961022 C 642.396264 475.466583 643.592345 476.029686 644.755545 476.654444 C 645.922855 477.275091 647.053173 477.953282 648.150608 478.689016 C 649.252154 479.42064 650.308488 480.209807 651.331939 481.048297 C 652.35128 481.886787 653.329519 482.77049 654.266655 483.703516 C 655.199681 484.640653 656.083384 485.618891 656.921874 486.638232 C 657.760364 487.661684 658.545421 488.718017 659.281156 489.819563 C 660.01689 490.916999 660.69508 492.047316 661.315728 493.214626 C 661.940485 494.377826 662.503589 495.573908 663.009149 496.790541 C 663.514709 498.011284 663.958616 499.256689 664.340869 500.518534 C 664.727232 501.78449 665.047831 503.062777 665.306777 504.361615 C 665.561612 505.656342 665.754794 506.95929 665.886321 508.274569 C 666.013739 509.589848 666.079503 510.909237 666.079503 512.228626 Z M 666.079503 512.228626 " stroke="#ffffff" stroke-width="15" stroke-opacity="1" stroke-miterlimit="10"/></g><path stroke-linecap="round" transform="matrix(0.950369, 0, 0, 0.950369, -102.302444, 78.893102)" fill="none" stroke-linejoin="miter" d="M 476.210783 584.059291 L 602.510433 584.059291 L 602.510433 649.420429 L 476.210783 649.420429 Z M 476.210783 584.059291 " stroke="#ffffff" stroke-width="15" stroke-opacity="1" stroke-miterlimit="10"/><path stroke-linecap="round" transform="matrix(0.950369, 0, 0, 0.950369, -102.302444, 78.893102)" fill="none" stroke-linejoin="miter" d="M 337.489968 479.630262 L 372.809315 479.630262 " stroke="#ffffff" stroke-width="12" stroke-opacity="1" stroke-miterlimit="10"/><path stroke-linecap="round" transform="matrix(0.950369, 0, 0, 0.950369, -102.302444, 78.893102)" fill="none" stroke-linejoin="miter" d="M 337.489968 522.401486 L 372.809315 522.401486 " stroke="#ffffff" stroke-width="12" stroke-opacity="1" stroke-miterlimit="10"/><path stroke-linecap="round" transform="matrix(0.950369, 0, 0, 0.950369, -102.302444, 78.893102)" fill="none" stroke-linejoin="miter" d="M 337.489968 565.160379 L 372.809315 565.160379 " stroke="#ffffff" stroke-width="12" stroke-opacity="1" stroke-miterlimit="10"/><path stroke-linecap="round" transform="matrix(0.950369, 0, 0, 0.950369, -102.302444, 78.893102)" fill="none" stroke-linejoin="miter" d="M 710.170116 479.630262 L 745.489463 479.630262 " stroke="#ffffff" stroke-width="12" stroke-opacity="1" stroke-miterlimit="10"/><path stroke-linecap="round" transform="matrix(0.950369, 0, 0, 0.950369, -102.302444, 78.893102)" fill="none" stroke-linejoin="miter" d="M 710.170116 522.401486 L 745.489463 522.401486 " stroke="#ffffff" stroke-width="12" stroke-opacity="1" stroke-miterlimit="10"/><path stroke-linecap="round" transform="matrix(0.950369, 0, 0, 0.950369, -102.302444, 78.893102)" fill="none" stroke-linejoin="miter" d="M 710.170116 565.160379 L 745.489463 565.160379 " stroke="#ffffff" stroke-width="12" stroke-opacity="1" stroke-miterlimit="10"/><g clip-path="url(#9ef40c3009)"><path stroke-linecap="square" transform="matrix(0.950369, 0, 0, 0.950369, -102.302444, 78.893102)" fill="none" stroke-linejoin="miter" d="M 752.300141 325.717977 L 752.300141 438.190758 C 759.480741 442.88877 768.847993 450.209119 777.660361 461.08072 C 791.191292 477.788872 796.789448 494.751859 799.251485 504.821962 L 799.251485 327.760769 " stroke="#ffffff" stroke-width="12" stroke-opacity="1" stroke-miterlimit="10"/></g><g clip-path="url(#a3caa8f0c4)"><path stroke-linecap="round" transform="matrix(0.950369, 0, 0, 0.950369, -102.302444, 78.893102)" fill="none" stroke-linejoin="miter" d="M 817.069403 295.630974 C 817.069403 296.802394 817.01186 297.969704 816.896773 299.137014 C 816.781686 300.304324 816.609056 301.463413 816.382992 302.614282 C 816.152818 303.761041 815.869211 304.899579 815.528061 306.017566 C 815.18691 307.139664 814.792327 308.24532 814.34431 309.326315 C 813.896293 310.407309 813.394843 311.467753 812.84407 312.499425 C 812.293297 313.535207 811.689091 314.538107 811.039672 315.512235 C 810.386143 316.490474 809.691511 317.42761 808.947556 318.335975 C 808.203602 319.240229 807.414434 320.107491 806.588275 320.937761 C 805.758005 321.76803 804.890743 322.553087 803.986489 323.297042 C 803.078124 324.040997 802.136878 324.735628 801.16275 325.389157 C 800.188621 326.038576 799.185721 326.642782 798.149939 327.193555 C 797.118267 327.748439 796.057824 328.245779 794.976829 328.693795 C 793.891724 329.145923 792.790178 329.540506 791.668081 329.877546 C 790.545983 330.218697 789.411555 330.502304 788.260686 330.732478 C 787.113928 330.962651 785.954838 331.131172 784.787528 331.246258 C 783.620218 331.361345 782.452908 331.418889 781.281488 331.418889 C 780.105958 331.418889 778.938648 331.361345 777.771338 331.246258 C 776.604028 331.131172 775.449048 330.962651 774.298179 330.732478 C 773.14731 330.502304 772.012883 330.218697 770.890785 329.877546 C 769.768688 329.540506 768.667142 329.145923 767.582037 328.693795 C 766.501042 328.245779 765.440599 327.748439 764.408927 327.193555 C 763.373145 326.642782 762.370245 326.038576 761.396116 325.389157 C 760.421988 324.735628 759.480741 324.040997 758.576487 323.297042 C 757.668123 322.553087 756.800861 321.76803 755.974701 320.937761 C 755.144431 320.107491 754.359374 319.240229 753.61542 318.335975 C 752.871465 317.42761 752.172723 316.490474 751.523304 315.512235 C 750.869775 314.538107 750.269679 313.535207 749.714796 312.499425 C 749.164023 311.467753 748.662573 310.407309 748.214556 309.326315 C 747.766539 308.24532 747.371956 307.139664 747.030805 306.017566 C 746.689655 304.899579 746.406048 303.761041 746.175874 302.614282 C 745.94981 301.463413 745.77718 300.304324 745.662093 299.137014 C 745.547006 297.969704 745.489463 296.802394 745.489463 295.630974 C 745.489463 294.459553 745.547006 293.288133 745.662093 292.120823 C 745.77718 290.953513 745.94981 289.798534 746.175874 288.647665 C 746.406048 287.496796 746.689655 286.362368 747.030805 285.240271 C 747.371956 284.118174 747.766539 283.016628 748.214556 281.935633 C 748.662573 280.850528 749.164023 279.794194 749.714796 278.758412 C 750.269679 277.726741 750.869775 276.71973 751.523304 275.745602 C 752.172723 274.771473 752.871465 273.830227 753.61542 272.925973 C 754.359374 272.017608 755.144431 271.150346 755.974701 270.324187 C 756.800861 269.493917 757.668123 268.70886 758.576487 267.964905 C 759.480741 267.220951 760.421988 266.522209 761.396116 265.87279 C 762.370245 265.219261 763.373145 264.619165 764.408927 264.064282 C 765.440599 263.513509 766.501042 263.012059 767.582037 262.564042 C 768.667142 262.116025 769.768688 261.721441 770.890785 261.380291 C 772.012883 261.03914 773.14731 260.755533 774.298179 260.52947 C 775.449048 260.299296 776.604028 260.126666 777.771338 260.011579 C 778.938648 259.896492 780.105958 259.838948 781.281488 259.838948 C 782.452908 259.838948 783.620218 259.896492 784.787528 260.011579 C 785.954838 260.126666 787.113928 260.299296 788.260686 260.52947 C 789.411555 260.755533 790.545983 261.03914 791.668081 261.380291 C 792.790178 261.721441 793.891724 262.116025 794.976829 262.564042 C 796.057824 263.012059 797.118267 263.513509 798.149939 264.064282 C 799.185721 264.619165 800.188621 265.219261 801.16275 265.87279 C 802.136878 266.522209 803.078124 267.220951 803.986489 267.964905 C 804.890743 268.70886 805.758005 269.493917 806.588275 270.324187 C 807.414434 271.150346 808.203602 272.017608 808.947556 272.925973 C 809.691511 273.830227 810.386143 274.771473 811.039672 275.745602 C 811.689091 276.71973 812.293297 277.726741 812.84407 278.758412 C 813.394843 279.794194 813.896293 280.850528 814.34431 281.935633 C 814.792327 283.016628 815.18691 284.118174 815.528061 285.240271 C 815.869211 286.362368 816.152818 287.496796 816.382992 288.647665 C 816.609056 289.798534 816.781686 290.953513 816.896773 292.120823 C 817.01186 293.288133 817.069403 294.459553 817.069403 295.630974 Z M 817.069403 295.630974 " stroke="#ffffff" stroke-width="15" stroke-opacity="1" stroke-miterlimit="10"/></g><g clip-path="url(#ad419410ae)"><path stroke-linecap="square" transform="matrix(0.950369, 0, 0, 0.950369, -102.302444, 78.893102)" fill="none" stroke-linejoin="miter" d="M 327.699361 325.717977 L 327.699361 438.190758 C 320.518761 442.88877 311.151509 450.209119 302.339141 461.08072 C 288.80821 477.788872 283.210055 494.751859 280.748017 504.821962 L 280.748017 327.760769 " stroke="#ffffff" stroke-width="12" stroke-opacity="1" stroke-miterlimit="10"/></g><g clip-path="url(#2af2eccf6f)"><path stroke-linecap="round" transform="matrix(0.950369, 0, 0, 0.950369, -102.302444, 78.893102)" fill="none" stroke-linejoin="miter" d="M 334.510039 295.630974 C 334.510039 296.802394 334.452496 297.969704 334.337409 299.137014 C 334.222322 300.304324 334.049692 301.463413 333.823628 302.614282 C 333.593455 303.761041 333.309848 304.899579 332.968697 306.017566 C 332.627547 307.139664 332.232963 308.24532 331.784946 309.326315 C 331.336929 310.407309 330.835479 311.467753 330.284706 312.499425 C 329.729823 313.535207 329.129727 314.538107 328.476198 315.512235 C 327.826779 316.490474 327.128037 317.42761 326.384082 318.335975 C 325.644238 319.240229 324.855071 320.107491 324.028911 320.937761 C 323.198642 321.76803 322.33138 322.553087 321.423015 323.297042 C 320.518761 324.040997 319.577514 324.735628 318.603386 325.389157 C 317.629258 326.038576 316.626358 326.642782 315.590575 327.193555 C 314.558904 327.748439 313.49846 328.245779 312.417465 328.693795 C 311.33236 329.145923 310.230814 329.540506 309.108717 329.877546 C 307.98662 330.218697 306.852192 330.502304 305.701323 330.732478 C 304.554564 330.962651 303.395475 331.131172 302.228165 331.246258 C 301.060855 331.361345 299.893545 331.418889 298.718014 331.418889 C 297.546594 331.418889 296.379284 331.361345 295.211974 331.246258 C 294.044664 331.131172 292.885575 330.962651 291.738816 330.732478 C 290.587947 330.502304 289.453519 330.218697 288.331422 329.877546 C 287.209324 329.540506 286.107778 329.145923 285.022673 328.693795 C 283.941679 328.245779 282.881235 327.748439 281.849563 327.193555 C 280.813781 326.642782 279.810881 326.038576 278.836753 325.389157 C 277.862624 324.735628 276.921378 324.040997 276.013013 323.297042 C 275.108759 322.553087 274.241497 321.76803 273.411227 320.937761 C 272.585068 320.107491 271.795901 319.240229 271.051946 318.335975 C 270.312102 317.42761 269.61336 316.490474 268.959831 315.512235 C 268.310412 314.538107 267.710316 313.535207 267.155432 312.499425 C 266.604659 311.467753 266.103209 310.407309 265.655192 309.326315 C 265.207176 308.24532 264.812592 307.139664 264.471442 306.017566 C 264.130291 304.899579 263.846684 303.761041 263.61651 302.614282 C 263.390447 301.463413 263.217816 300.304324 263.102729 299.137014 C 262.987643 297.969704 262.930099 296.802394 262.930099 295.630974 C 262.930099 294.459553 262.987643 293.288133 263.102729 292.120823 C 263.217816 290.953513 263.390447 289.798534 263.61651 288.647665 C 263.846684 287.496796 264.130291 286.362368 264.471442 285.240271 C 264.812592 284.118174 265.207176 283.016628 265.655192 281.935633 C 266.103209 280.850528 266.604659 279.794194 267.155432 278.758412 C 267.710316 277.726741 268.310412 276.71973 268.959831 275.745602 C 269.61336 274.771473 270.312102 273.830227 271.051946 272.925973 C 271.795901 272.017608 272.585068 271.150346 273.411227 270.324187 C 274.241497 269.493917 275.108759 268.70886 276.013013 267.964905 C 276.921378 267.220951 277.862624 266.522209 278.836753 265.87279 C 279.810881 265.219261 280.813781 264.619165 281.849563 264.064282 C 282.881235 263.513509 283.941679 263.012059 285.022673 262.564042 C 286.107778 262.116025 287.209324 261.721441 288.331422 261.380291 C 289.453519 261.03914 290.587947 260.755533 291.738816 260.52947 C 292.885575 260.299296 294.044664 260.126666 295.211974 260.011579 C 296.379284 259.896492 297.546594 259.838948 298.718014 259.838948 C 299.893545 259.838948 301.060855 259.896492 302.228165 260.011579 C 303.395475 260.126666 304.554564 260.299296 305.701323 260.52947 C 306.852192 260.755533 307.98662 261.03914 309.108717 261.380291 C 310.230814 261.721441 311.33236 262.116025 312.417465 262.564042 C 313.49846 263.012059 314.558904 263.513509 315.590575 264.064282 C 316.626358 264.619165 317.629258 265.219261 318.603386 265.87279 C 319.577514 266.522209 320.518761 267.220951 321.423015 267.964905 C 322.33138 268.70886 323.198642 269.493917 324.028911 270.324187 C 324.855071 271.150346 325.644238 272.017608 326.384082 272.925973 C 327.128037 273.830227 327.826779 274.771473 328.476198 275.745602 C 329.129727 276.71973 329.729823 277.726741 330.284706 278.758412 C 330.835479 279.794194 331.336929 280.850528 331.784946 281.935633 C 332.232963 283.016628 332.627547 284.118174 332.968697 285.240271 C 333.309848 286.362368 333.593455 287.496796 333.823628 288.647665 C 334.049692 289.798534 334.222322 290.953513 334.337409 292.120823 C 334.452496 293.288133 334.510039 294.459553 334.510039 295.630974 Z M 334.510039 295.630974 " stroke="#ffffff" stroke-width="15" stroke-opacity="1" stroke-miterlimit="10"/></g></svg>